<?xml version="1.0" encoding="UTF-8"?>
<svg version="1.1" xmlns="http://www.w3.org/2000/svg" width="612" height="408">
<path d="M0 0 C6.26061806 5.09858307 9.98590845 10.67457124 13.56420898 17.93530273 C13.98959961 18.64557617 14.41499023 19.35584961 14.85327148 20.08764648 C20.99027851 31.23580673 20.68243242 48.03876308 17.56420898 59.93530273 C15.00360851 67.27185466 11.10718721 73.66698579 6.56420898 79.93530273 C5.79463867 81.05098633 5.79463867 81.05098633 5.00952148 82.18920898 C4.53256836 82.76541992 4.05561523 83.34163086 3.56420898 83.93530273 C2.90420898 83.93530273 2.24420898 83.93530273 1.56420898 83.93530273 C1.56420898 84.59530273 1.56420898 85.25530273 1.56420898 85.93530273 C-9.53387259 96.26596377 -23.72749347 99.63587378 -38.59594727 99.28295898 C-55.5698744 97.74615378 -67.5036471 90.53739619 -78.43579102 77.93530273 C-88.3183486 64.59487303 -91.24913022 48.88992095 -88.97485352 32.64233398 C-86.20502449 20.30844828 -80.370175 10.75879897 -71.43579102 1.93530273 C-70.89438477 1.37198242 -70.35297852 0.80866211 -69.79516602 0.22827148 C-50.16593206 -18.55829334 -20.21273411 -15.34692725 0 0 Z M-55.62329102 9.18530273 C-57.12956055 10.33772461 -57.12956055 10.33772461 -58.66625977 11.51342773 C-67.27549147 19.04195193 -71.37345548 29.34702386 -72.76000977 40.55639648 C-73.23091389 51.48461974 -70.45293969 62.70631346 -63.31469727 71.10327148 C-55.49994308 78.72306298 -46.24745637 83.67592643 -35.23657227 84.03295898 C-24.67658782 83.66475869 -14.29145334 79.46008899 -6.99829102 71.68530273 C2.13573718 60.40097207 3.36092573 48.98267693 2.56420898 34.93530273 C1.48317293 29.53012248 -0.82914993 24.77620762 -3.43579102 19.93530273 C-4.09579102 19.93530273 -4.75579102 19.93530273 -5.43579102 19.93530273 C-5.81477539 19.07098633 -5.81477539 19.07098633 -6.20141602 18.18920898 C-9.4355638 12.28381888 -15.14725162 7.25932816 -21.43579102 4.93530273 C-25.95540329 4.00536812 -30.263977 3.80086709 -34.87329102 3.81030273 C-36.75854492 3.80643555 -36.75854492 3.80643555 -38.68188477 3.80249023 C-45.77588229 4.05347454 -49.93843021 4.74331576 -55.62329102 9.18530273 Z " fill="#74B4E1" transform="translate(308.435791015625,154.064697265625)"/>
<path d="M0 0 C1.27875 0.00257813 2.5575 0.00515625 3.875 0.0078125 C5.15375 0.00523437 6.4325 0.00265625 7.75 0 C10.875 0.1328125 10.875 0.1328125 11.875 1.1328125 C11.96795815 2.57571037 11.99246513 4.02311035 11.98852539 5.46899414 C11.98840454 6.40279907 11.98828369 7.336604 11.98815918 8.29870605 C11.98048523 9.78086609 11.98048523 9.78086609 11.97265625 11.29296875 C11.97164917 12.19623901 11.97064209 13.09950928 11.96960449 14.03015137 C11.96435512 17.41855124 11.95039398 20.80693309 11.9375 24.1953125 C11.916875 31.7646875 11.89625 39.3340625 11.875 47.1328125 C28.045 47.1328125 44.215 47.1328125 60.875 47.1328125 C60.83541271 32.4133118 60.83541271 32.4133118 60.78491211 17.69384766 C60.78199244 15.85319069 60.779444 14.01253308 60.77734375 12.171875 C60.77222778 11.21047607 60.76711182 10.24907715 60.76184082 9.25854492 C60.76165955 7.8884729 60.76165955 7.8884729 60.76147461 6.49072266 C60.759254 5.69574371 60.75703339 4.90076477 60.75474548 4.08169556 C60.875 2.1328125 60.875 2.1328125 61.875 0.1328125 C64.35423801 0.10596155 66.8331884 0.08604703 69.3125 0.0703125 C70.01955078 0.06193359 70.72660156 0.05355469 71.45507812 0.04492188 C73.26193559 0.03627662 75.06887603 0.08061239 76.875 0.1328125 C78.42093569 1.67874819 78.00094233 3.11771324 78.00198364 5.27050781 C78.00621338 6.60825256 78.00621338 6.60825256 78.01052856 7.97302246 C78.00749222 9.45204041 78.00749222 9.45204041 78.00439453 10.9609375 C78.00702301 12.50956482 78.00702301 12.50956482 78.00970459 14.08947754 C78.01412533 17.52060602 78.01118433 20.95168344 78.0078125 24.3828125 C78.00848548 26.75553396 78.00945545 29.12825534 78.01071167 31.50097656 C78.01218894 36.48112645 78.01003314 41.46125844 78.00537109 46.44140625 C77.9996738 52.84109929 78.00295264 59.2407504 78.00894356 65.64044189 C78.01254837 70.54215819 78.01141095 75.44386446 78.00881577 80.34558105 C78.00814628 82.70601405 78.00897568 85.06644794 78.01129532 87.42687988 C78.01382054 90.71950713 78.00998309 94.01206542 78.00439453 97.3046875 C78.00641876 98.29069946 78.00844299 99.27671143 78.01052856 100.29260254 C78.00770874 101.18443237 78.00488892 102.07626221 78.00198364 102.99511719 C78.0014181 104.16430695 78.0014181 104.16430695 78.00084114 105.3571167 C77.875 107.1328125 77.875 107.1328125 76.875 108.1328125 C74.34450598 108.20594817 71.84195163 108.22528777 69.3125 108.1953125 C68.24612305 108.18854492 68.24612305 108.18854492 67.15820312 108.18164062 C65.39709987 108.16982114 63.63603964 108.15188513 61.875 108.1328125 C60.95638216 105.37695898 60.75295678 103.7732056 60.76147461 100.93676758 C60.76159546 100.08441528 60.76171631 99.23206299 60.76184082 98.35388184 C60.76695679 97.46237427 60.77207275 96.5708667 60.77734375 95.65234375 C60.77835083 94.82972046 60.77935791 94.00709717 60.78039551 93.1595459 C60.78562551 90.08812058 60.79958678 87.01671513 60.8125 83.9453125 C60.833125 77.0771875 60.85375 70.2090625 60.875 63.1328125 C45.035 63.1328125 29.195 63.1328125 12.875 63.1328125 C12.545 77.9828125 12.215 92.8328125 11.875 108.1328125 C6.925 108.1328125 1.975 108.1328125 -3.125 108.1328125 C-4.67093569 106.58687681 -4.25094233 105.14791176 -4.25198364 102.99511719 C-4.25480347 102.10328735 -4.25762329 101.21145752 -4.26052856 100.29260254 C-4.25850433 99.30659058 -4.2564801 98.32057861 -4.25439453 97.3046875 C-4.25614685 96.27226929 -4.25789917 95.23985107 -4.25970459 94.17614746 C-4.26412533 90.74501898 -4.26118433 87.31394156 -4.2578125 83.8828125 C-4.25848548 81.51009104 -4.25945545 79.13736966 -4.26071167 76.76464844 C-4.26218894 71.78449855 -4.26003314 66.80436656 -4.25537109 61.82421875 C-4.2496738 55.42452571 -4.25295264 49.0248746 -4.25894356 42.62518311 C-4.26254837 37.72346681 -4.26141095 32.82176054 -4.25881577 27.92004395 C-4.25814628 25.55961095 -4.25897568 23.19917706 -4.26129532 20.83874512 C-4.26382054 17.54611787 -4.25998309 14.25355958 -4.25439453 10.9609375 C-4.25641876 9.97492554 -4.25844299 8.98891357 -4.26052856 7.97302246 C-4.25770874 7.08119263 -4.25488892 6.18936279 -4.25198364 5.27050781 C-4.25160662 4.49104797 -4.25122959 3.71158813 -4.25084114 2.9085083 C-4.02689684 -0.25148328 -3.22173303 0.13692365 0 0 Z " fill="#77B6E1" transform="translate(348.125,142.8671875)"/>
<path d="M0 0 C1.39456452 0.00667256 2.78911118 0.01863093 4.18359375 0.03515625 C4.89451172 0.03966797 5.60542969 0.04417969 6.33789062 0.04882812 C8.09899388 0.06064761 9.86005411 0.07858362 11.62109375 0.09765625 C12.77995327 2.41537528 12.74681624 3.73809944 12.74807739 6.31764221 C12.75089722 7.20243256 12.75371704 8.0872229 12.75662231 8.99882507 C12.75459808 9.97189102 12.75257385 10.94495697 12.75048828 11.94750977 C12.7522406 12.97032043 12.75399292 13.9931311 12.75579834 15.04693604 C12.76021286 18.44016193 12.75728047 21.83333604 12.75390625 25.2265625 C12.75457935 27.57543447 12.75554943 29.92430637 12.75680542 32.2731781 C12.75828181 37.20027325 12.75612952 42.12735031 12.75146484 47.05444336 C12.74576447 53.38572662 12.7490489 59.71696753 12.75503731 66.04824924 C12.75864183 70.89935122 12.75750489 75.75044306 12.75490952 80.60154533 C12.75424011 82.93685855 12.75506915 85.27217266 12.75738907 87.60748482 C12.75991415 90.86408061 12.75607717 94.12060669 12.75048828 97.37719727 C12.75251251 98.35228745 12.75453674 99.32737762 12.75662231 100.33201599 C12.75239258 101.65497177 12.75239258 101.65497177 12.74807739 103.00465393 C12.74770037 103.77544061 12.74732334 104.54622728 12.74693489 105.34037113 C12.62109375 107.09765625 12.62109375 107.09765625 11.62109375 108.09765625 C9.10973271 108.19740657 6.6320596 108.23647808 4.12109375 108.22265625 C3.41855469 108.22652344 2.71601563 108.23039062 1.9921875 108.234375 C-3.25229247 108.22427003 -3.25229247 108.22427003 -4.37890625 107.09765625 C-4.4764519 105.72122726 -4.50522244 104.3398419 -4.50588989 102.95996094 C-4.50870972 102.0681311 -4.51152954 101.17630127 -4.51443481 100.25744629 C-4.51241058 99.27143433 -4.51038635 98.28542236 -4.50830078 97.26953125 C-4.5100531 96.23711304 -4.51180542 95.20469482 -4.51361084 94.14099121 C-4.51803158 90.70986273 -4.51509058 87.27878531 -4.51171875 83.84765625 C-4.51239173 81.47493479 -4.5133617 79.10221341 -4.51461792 76.72949219 C-4.51609519 71.7493423 -4.51393939 66.76921031 -4.50927734 61.7890625 C-4.50358005 55.38936946 -4.50685889 48.98971835 -4.51284981 42.59002686 C-4.51645462 37.68831056 -4.5153172 32.78660429 -4.51272202 27.8848877 C-4.51205253 25.5244547 -4.51288193 23.16402081 -4.51520157 20.80358887 C-4.51772679 17.51096162 -4.51388934 14.21840333 -4.50830078 10.92578125 C-4.51032501 9.93976929 -4.51234924 8.95375732 -4.51443481 7.93786621 C-4.51161499 7.04603638 -4.50879517 6.15420654 -4.50588989 5.23535156 C-4.50551287 4.45589172 -4.50513584 3.67643188 -4.50474739 2.87335205 C-4.27240196 -0.40518474 -3.36694134 0.09731044 0 0 Z " fill="#79B9E5" transform="translate(189.37890625,142.90234375)"/>
<path d="M0 0 C-0.33 1.98 -0.66 3.96 -1 6 C-2.670625 6.185625 -2.670625 6.185625 -4.375 6.375 C-8.03103677 6.6465813 -8.03103677 6.6465813 -10 9 C-12.88916016 9.22705078 -12.88916016 9.22705078 -16.5390625 9.1953125 C-18.49199219 9.18564453 -18.49199219 9.18564453 -20.484375 9.17578125 C-21.86458595 9.15906929 -23.24479429 9.14213939 -24.625 9.125 C-26.01301452 9.11497006 -27.40103589 9.10584423 -28.7890625 9.09765625 C-32.19288026 9.07401863 -35.59635506 9.04106867 -39 9 C-39 9.66 -39 10.32 -39 11 C-41.90548882 13.04169485 -43.40142046 14 -47 14 C-47 14.66 -47 15.32 -47 16 C-48.96147874 17.38938077 -50.96166576 18.7260411 -53 20 C-53.66 18.68 -54.32 17.36 -55 16 C-55 18.64 -55 21.28 -55 24 C-55.66 24.33 -56.32 24.66 -57 25 C-57.7115625 26.2375 -57.7115625 26.2375 -58.4375 27.5 C-60 30 -60 30 -63 31 C-65.36522558 30.07796291 -67.70401807 29.08301035 -70 28 C-69.03142502 22.62881145 -69.03142502 22.62881145 -68 20 C-66.824375 19.319375 -66.824375 19.319375 -65.625 18.625 C-62.440961 16.65392824 -62.41215503 15.72094907 -61.3125 12.25 C-58.68430081 4.98006193 -53.1261092 2.13464325 -46.5234375 -1.28125 C-32.00006107 -8.08149314 -14.26879862 -6.71472876 0 0 Z " fill="#74B5E2" transform="translate(298,147)"/>
<path d="M0 0 C11.35643359 6.04065617 17.80769416 12.598294 24 24 C24.65162109 25.07507813 24.65162109 25.07507813 25.31640625 26.171875 C30.7520176 36.20067822 30.52734843 50.0118818 29 61 C28.34 61 27.68 61 27 61 C26.67 53.08 26.34 45.16 26 37 C25.34 37 24.68 37 24 37 C23.01 31.06 23.01 31.06 22 25 C21.34 25 20.68 25 20 25 C19.62875 23.824375 19.62875 23.824375 19.25 22.625 C17.84610901 19.67682892 16.99324263 19.0975223 14 18 C13.67 18.66 13.34 19.32 13 20 C11.68 20.66 10.36 21.32 9 22 C9.99 26.455 9.99 26.455 11 31 C11.66 31 12.32 31 13 31 C14.87497643 37.34664642 15.30596675 43.08808683 15.25 49.6875 C15.26160156 51.07291992 15.26160156 51.07291992 15.2734375 52.48632812 C15.26021425 57.07809998 15.20495833 60.84382855 13 65 C12.34 65 11.68 65 11 65 C11.165 64.01 11.33 63.02 11.5 62 C12.7338893 51.82041324 13.14699443 41.52797257 9 32 C8.33333333 30 7.66666667 28 7 26 C6.34 26 5.68 26 5 26 C3.44921875 24.390625 3.44921875 24.390625 1.6875 22.25 C-3.8195733 15.78318779 -8.53769723 12.1593553 -17 11 C-19.4778507 10.90911874 -21.95798841 10.86992423 -24.4375 10.875 C-26.32275391 10.87113281 -26.32275391 10.87113281 -28.24609375 10.8671875 C-35.04254741 11.10764476 -39.32279508 11.68286169 -44.8125 15.875 C-45.74707031 16.57367188 -46.68164062 17.27234375 -47.64453125 17.9921875 C-50.17118483 19.96061542 -50.17118483 19.96061542 -52 23 C-52.66 23 -53.32 23 -54 23 C-55.4065742 26.48174421 -56.76134325 29.97747678 -58.0625 33.5 C-58.40410156 34.4178125 -58.74570313 35.335625 -59.09765625 36.28125 C-60.50144977 40.51086164 -61.12638367 44.41053167 -61.09765625 48.86328125 C-61.09443359 49.74951172 -61.09121094 50.63574219 -61.08789062 51.54882812 C-61.07951172 52.46083984 -61.07113281 53.37285156 -61.0625 54.3125 C-61.05798828 55.24384766 -61.05347656 56.17519531 -61.04882812 57.13476562 C-61.03709234 59.42324373 -61.02067363 61.71158808 -61 64 C-65.46024612 57.30963083 -64.50340319 47.74881336 -64 40 C-63.35055116 37.10613239 -62.31113805 34.64970576 -61 32 C-60.26821996 30.33447913 -59.53908855 28.66779222 -58.8125 27 C-58.21067185 25.6656095 -57.60736227 24.33188071 -57 23 C-56.34 23 -55.68 23 -55 23 C-55.33 20.36 -55.66 17.72 -56 15 C-55.34 14.67 -54.68 14.34 -54 14 C-53.34 15.32 -52.68 16.64 -52 18 C-51.54625 17.505 -51.0925 17.01 -50.625 16.5 C-49 15 -49 15 -47 15 C-47 14.34 -47 13.68 -47 13 C-41.25 10 -41.25 10 -39 10 C-39 9.34 -39 8.68 -39 8 C-35.65613602 6.98914572 -32.6251882 6.88456537 -29.140625 6.90234375 C-28.02558594 6.90556641 -26.91054688 6.90878906 -25.76171875 6.91210938 C-24.60285156 6.92048828 -23.44398438 6.92886719 -22.25 6.9375 C-21.07566406 6.94201172 -19.90132813 6.94652344 -18.69140625 6.95117188 C-15.79421928 6.96294906 -12.89713546 6.97939674 -10 7 C-10 6.34 -10 5.68 -10 5 C-7.03 5 -4.06 5 -1 5 C-0.67 3.35 -0.34 1.7 0 0 Z " fill="#7AB5DE" transform="translate(298,148)"/>
<path d="M0 0 C0.33 0 0.66 0 1 0 C1.33 33.99 1.66 67.98 2 103 C5.63 103.33 9.26 103.66 13 104 C12.99777939 103.0362999 12.99555878 102.07259979 12.99327087 101.07969666 C12.97278426 91.88927355 12.95790717 82.69885523 12.94818783 73.50841427 C12.94302269 68.78627999 12.93604461 64.06416449 12.92456055 59.34204102 C12.82946594 19.226055 12.82946594 19.226055 14 0 C14.66 0 15.32 0 16 0 C16.0231205 13.67302562 16.04091359 27.34604664 16.05181217 41.01908779 C16.05704164 47.36730576 16.06414044 53.7155104 16.07543945 60.0637207 C16.08626606 66.18448582 16.09227635 72.30523809 16.09487724 78.42601204 C16.0967319 80.76690943 16.10035329 83.10780609 16.10573006 85.44869804 C16.11293748 88.71508202 16.11399107 91.98141215 16.11352539 95.24780273 C16.11712067 96.226035 16.12071594 97.20426727 16.12442017 98.21214294 C16.1230455 99.09700378 16.12167084 99.98186462 16.12025452 100.89353943 C16.12117631 101.66692374 16.1220981 102.44030806 16.12304783 103.23712826 C16 105 16 105 15 106 C10.05 106 5.1 106 0 106 C0 71.02 0 36.04 0 0 Z " fill="#769ECA" transform="translate(186,145)"/>
<path d="M0 0 C0.33 0 0.66 0 1 0 C1 15.18 1 30.36 1 46 C17.17 46 33.34 46 50 46 C49.96039293 31.23545549 49.96039293 31.23545549 49.90991211 16.47094727 C49.90699306 14.62776751 49.90444448 12.78458712 49.90234375 10.94140625 C49.89722778 9.97489136 49.89211182 9.00837646 49.88684082 8.01257324 C49.88665955 6.64231995 49.88665955 6.64231995 49.88647461 5.24438477 C49.884254 4.44718521 49.88203339 3.64998566 49.87974548 2.82862854 C50 1 50 1 51 0 C52.66617115 -0.04063832 54.33388095 -0.042721 56 0 C55.01 0.33 54.02 0.66 53 1 C53.00222061 1.58659897 53.00444122 2.17319794 53.00672913 2.77757263 C53.0287821 8.86025384 53.04390664 14.94292377 53.05493164 21.02563477 C53.05997325 23.29842591 53.06680637 25.5712138 53.07543945 27.84399414 C53.08751261 31.10303551 53.09322987 34.36203417 53.09765625 37.62109375 C53.10281754 38.64400009 53.10797882 39.66690643 53.11329651 40.72080994 C53.11337204 41.66170975 53.11344757 42.60260956 53.11352539 43.57202148 C53.115746 44.40475082 53.11796661 45.23748016 53.12025452 46.09544373 C53 48 53 48 52 49 C50.34261557 49.09346915 48.68125356 49.11744977 47.02124023 49.11352539 C45.96021591 49.11344986 44.89919159 49.11337433 43.80601501 49.11329651 C42.07479149 49.10555458 42.07479149 49.10555458 40.30859375 49.09765625 C39.13361832 49.0962413 37.95864288 49.09482635 36.74806213 49.09336853 C32.97784936 49.08774992 29.20769496 49.07519426 25.4375 49.0625 C22.88867273 49.0574874 20.33984453 49.05292408 17.79101562 49.04882812 C11.52730291 49.03862331 5.26371716 49.01905152 -1 49 C-0.67 32.83 -0.34 16.66 0 0 Z " fill="#A0C6DB" transform="translate(359,144)"/>
<path d="M0 0 C4.62 0 9.24 0 14 0 C14 15.84 14 31.68 14 48 C13.67 48 13.34 48 13 48 C13 32.82 13 17.64 13 2 C9.04 2 5.08 2 1 2 C1.33 36.65 1.66 71.3 2 107 C1.01 107 0.02 107 -1 107 C-1.02333058 93.19659113 -1.04091354 79.3931853 -1.05181217 65.58976078 C-1.05704166 59.18100872 -1.0641405 52.77226985 -1.07543945 46.36352539 C-1.08626599 40.18440559 -1.09227634 34.00529852 -1.09487724 27.82616997 C-1.09673192 25.4629439 -1.10035332 23.09971856 -1.10573006 20.73649788 C-1.11293738 17.43898104 -1.11399107 14.14151753 -1.11352539 10.84399414 C-1.11712067 9.85641113 -1.12071594 8.86882812 -1.12442017 7.85131836 C-1.1230455 6.95804337 -1.12167084 6.06476837 -1.12025452 5.14442444 C-1.12117631 4.36366578 -1.1220981 3.58290712 -1.12304783 2.77848911 C-1 1 -1 1 0 0 Z " fill="#7AA2C1" transform="translate(345,143)"/>
<path d="M0 0 C17.16 0 34.32 0 52 0 C52.495 0.99 52.495 0.99 53 2 C45.04860388 3.04887707 37.13089739 3.1544465 29.12304688 3.13037109 C27.0038335 3.1250097 24.88483198 3.13034741 22.765625 3.13671875 C21.38541621 3.13605781 20.00520755 3.13477631 18.625 3.1328125 C16.78808594 3.13112061 16.78808594 3.13112061 14.9140625 3.12939453 C10.26332873 2.97564647 5.63018113 2.46301811 1 2 C1 16.85 1 31.7 1 47 C0.01 46.67 -0.98 46.34 -2 46 C-1.88256379 39.7702015 -1.75772966 33.54058315 -1.62768555 27.31103516 C-1.58430248 25.19062687 -1.54262993 23.07018288 -1.50268555 20.94970703 C-1.44506457 17.90646592 -1.38134675 14.8634051 -1.31640625 11.8203125 C-1.29969376 10.86818878 -1.28298126 9.91606506 -1.26576233 8.93508911 C-1.24581711 8.05432709 -1.22587189 7.17356506 -1.20532227 6.26611328 C-1.18977798 5.48889923 -1.1742337 4.71168518 -1.15821838 3.91091919 C-1 2 -1 2 0 0 Z " fill="#82A7C4" transform="translate(358,203)"/>
<path d="M0 0 C1.10118164 -0.01836914 1.10118164 -0.01836914 2.22460938 -0.03710938 C7.08951004 -0.05005942 11.07118574 0.64466313 15.6875 2.1875 C15.6875 2.5175 15.6875 2.8475 15.6875 3.1875 C15.08800537 3.21255615 14.48851074 3.2376123 13.87084961 3.26342773 C11.12206676 3.38035773 8.37354625 3.50263947 5.625 3.625 C4.68205078 3.66431641 3.73910156 3.70363281 2.76757812 3.74414062 C-8.37765987 4.07704541 -8.37765987 4.07704541 -18.125 9.0625 C-19.05957031 9.76117188 -19.99414062 10.45984375 -20.95703125 11.1796875 C-23.48368483 13.14811542 -23.48368483 13.14811542 -25.3125 16.1875 C-25.9725 16.1875 -26.6325 16.1875 -27.3125 16.1875 C-28.7190742 19.66924421 -30.07384325 23.16497678 -31.375 26.6875 C-31.71660156 27.6053125 -32.05820313 28.523125 -32.41015625 29.46875 C-33.81394977 33.69836164 -34.43888367 37.59803167 -34.41015625 42.05078125 C-34.40693359 42.93701172 -34.40371094 43.82324219 -34.40039062 44.73632812 C-34.39201172 45.64833984 -34.38363281 46.56035156 -34.375 47.5 C-34.37048828 48.43134766 -34.36597656 49.36269531 -34.36132812 50.32226562 C-34.34959234 52.61074373 -34.33317363 54.89908808 -34.3125 57.1875 C-38.77274612 50.49713083 -37.81590319 40.93631336 -37.3125 33.1875 C-36.66305116 30.29363239 -35.62363805 27.83720576 -34.3125 25.1875 C-33.58071996 23.52197913 -32.85158855 21.85529222 -32.125 20.1875 C-31.52317185 18.8531095 -30.91986227 17.51938071 -30.3125 16.1875 C-29.6525 16.1875 -28.9925 16.1875 -28.3125 16.1875 C-28.6425 13.5475 -28.9725 10.9075 -29.3125 8.1875 C-28.6525 7.8575 -27.9925 7.5275 -27.3125 7.1875 C-26.6525 8.5075 -25.9925 9.8275 -25.3125 11.1875 C-24.85875 10.6925 -24.405 10.1975 -23.9375 9.6875 C-22.3125 8.1875 -22.3125 8.1875 -20.3125 8.1875 C-20.3125 7.5275 -20.3125 6.8675 -20.3125 6.1875 C-14.5625 3.1875 -14.5625 3.1875 -12.3125 3.1875 C-12.3125 2.5275 -12.3125 1.8675 -12.3125 1.1875 C-8.20995104 0.0455299 -4.23265775 0.0036583 0 0 Z " fill="#7DA9CB" transform="translate(271.3125,154.8125)"/>
<path d="M0 0 C0.33 0 0.66 0 1 0 C1.02505615 0.96413818 1.0501123 1.92827637 1.07592773 2.92163086 C1.16985306 6.48687842 1.27010939 10.05192433 1.37231445 13.61694336 C1.41571985 15.16214289 1.45739071 16.70739214 1.49731445 18.25268555 C1.55488199 20.46939096 1.61861424 22.6858448 1.68359375 24.90234375 C1.70030624 25.5971434 1.71701874 26.29194305 1.73423767 27.00779724 C1.56502856 30.28762029 1.56502856 30.28762029 3 33 C3.11418308 35.6039499 3.16394122 38.18024381 3.16796875 40.78515625 C3.17202225 41.58553314 3.17607574 42.38591003 3.18025208 43.21054077 C3.18976556 45.82790032 3.18964205 48.44512541 3.1875 51.0625 C3.1882251 51.94471222 3.1889502 52.82692444 3.18969727 53.73587036 C3.18840338 67.92058134 2.59099956 81.89408423 1 96 C0.67 96 0.34 96 0 96 C0 64.32 0 32.64 0 0 Z " fill="#71B0DC" transform="translate(187,152)"/>
<path d="M0 0 C0.99 0.33 1.98 0.66 3 1 C2.34 1 1.68 1 1 1 C1 34.66 1 68.32 1 103 C4.96 103.66 8.92 104.32 13 105 C13 90.15 13 75.3 13 60 C13.66 60.33 14.32 60.66 15 61 C14.67 75.85 14.34 90.7 14 106 C9.05 106 4.1 106 -1 106 C-0.505 105.01 -0.505 105.01 0 104 C0.0916994 102.60618753 0.12193744 101.20807345 0.12025452 99.81124878 C0.12162918 98.93342743 0.12300385 98.05560608 0.12442017 97.15118408 C0.11902725 95.7032547 0.11902725 95.7032547 0.11352539 94.22607422 C0.11367142 93.21141083 0.11381744 92.19674744 0.1139679 91.15133667 C0.11326928 87.78576546 0.10547922 84.42024908 0.09765625 81.0546875 C0.09579189 78.72584056 0.09436807 76.39699323 0.09336853 74.06814575 C0.08954476 67.92949344 0.07971566 61.79086467 0.06866455 55.65222168 C0.05844742 49.39184894 0.05387026 43.13147241 0.04882812 36.87109375 C0.03809329 24.5807188 0.02101853 12.29036136 0 0 Z " fill="#8BBBDF" transform="translate(346,145)"/>
<path d="M0 0 C0.99 0.33 1.98 0.66 3 1 C2.01 3.31 1.02 5.62 0 8 C-0.99 8 -1.98 8 -3 8 C-3.0928125 8.86625 -3.0928125 8.86625 -3.1875 9.75 C-4.34200848 12.94710041 -6.21547979 14.1436532 -9 16 C-9.99 16 -10.98 16 -12 16 C-12.0928125 16.928125 -12.0928125 16.928125 -12.1875 17.875 C-13 20 -13 20 -15.1875 21.1875 C-21.30444494 22.95461743 -27.24154807 23.21089125 -33.5625 23.25 C-34.39974609 23.270625 -35.23699219 23.29125 -36.09960938 23.3125 C-40.98027279 23.34341473 -43.95382857 23.00770538 -48 20 C-50.19130534 19.30420546 -50.19130534 19.30420546 -52 19 C-52 18.34 -52 17.68 -52 17 C-52.99 17 -53.98 17 -55 17 C-55 16.34 -55 15.68 -55 15 C-51.59261017 15.41553534 -48.98782703 16.00584303 -45.875 17.5 C-38.17720405 20.95719597 -28.85268631 20.83061948 -21 18 C-11.45731262 14.18042041 -4.42591878 9.48411167 0 0 Z " fill="#8EB4D3" transform="translate(306,217)"/>
<path d="M0 0 C11.35643359 6.04065617 17.80769416 12.598294 24 24 C24.43441406 24.71671875 24.86882812 25.4334375 25.31640625 26.171875 C30.7520176 36.20067822 30.52734843 50.0118818 29 61 C28.34 61 27.68 61 27 61 C26.505 49.12 26.505 49.12 26 37 C25.34 37 24.68 37 24 37 C23.34 33.04 22.68 29.08 22 25 C21.34 25 20.68 25 20 25 C19.79375 24.34 19.5875 23.68 19.375 23 C17.15999297 18.16725739 14.11828976 13.56044833 9.8046875 10.3828125 C9.20914062 9.92648438 8.61359375 9.47015625 8 9 C8 8.34 8 7.68 8 7 C7.443125 6.87625 6.88625 6.7525 6.3125 6.625 C3.77885636 5.94023145 1.42078968 5.00866237 -1 4 C-0.67 2.68 -0.34 1.36 0 0 Z " fill="#86ADCA" transform="translate(298,148)"/>
<path d="M0 0 C0.99 0.33 1.98 0.66 3 1 C2.34 1.99 1.68 2.98 1 4 C0.34 4 -0.32 4 -1 4 C-1 4.66 -1 5.32 -1 6 C-12.10988467 16.34164796 -26.25472297 19.64578823 -41.12890625 19.3671875 C-48.13155494 18.70296048 -55.68166089 17.15916956 -62 14 C-62 13.34 -62 12.68 -62 12 C-58.92530975 12.43924146 -56.11968215 12.95744635 -53.1875 14 C-43.14117105 17.15178948 -32.05778163 16.83367065 -22 14 C-21.16597656 13.77054688 -20.33195312 13.54109375 -19.47265625 13.3046875 C-16.16140085 12.34186814 -16.16140085 12.34186814 -13 11 C-12.67 10.01 -12.34 9.02 -12 8 C-10.29353827 7.27803542 -8.58431453 6.56111715 -6.85546875 5.89453125 C-3.9880533 4.51213517 -2.09417677 2.34801638 0 0 Z " fill="#9CBCD5" transform="translate(311,234)"/>
<path d="M0 0 C0.33 0 0.66 0 1 0 C1.40652968 5.42039575 0.03993514 9.07015675 -2 14 C-2.66 14 -3.32 14 -4 14 C-4.19598784 23.89738606 -4.29382918 33.30564163 -2 43 C-1.6621876 44.66576459 -1.32765478 46.33220768 -1 48 C-1.99 47.67 -2.98 47.34 -4 47 C-9.232575 36.29798447 -8.10471302 21.74712885 -4.93359375 10.640625 C-3.60267356 6.87618127 -1.94421109 3.48617161 0 0 Z " fill="#94B5CD" transform="translate(226,170)"/>
<path d="M0 0 C0.93134766 0.00322266 1.86269531 0.00644531 2.82226562 0.00976562 C4.26182617 0.02233398 4.26182617 0.02233398 5.73046875 0.03515625 C6.70951172 0.03966797 7.68855469 0.04417969 8.69726562 0.04882812 C11.10422986 0.06056941 13.51106732 0.07699206 15.91796875 0.09765625 C15.91796875 0.75765625 15.91796875 1.41765625 15.91796875 2.09765625 C15.36447754 2.10700195 14.81098633 2.11634766 14.24072266 2.12597656 C-0.41653141 2.32263729 -0.41653141 2.32263729 -14.08203125 7.09765625 C-16.1206053 8.02118015 -18.16234015 8.93775579 -20.20703125 9.84765625 C-21.83308431 10.5953704 -23.4584797 11.34452587 -25.08203125 12.09765625 C-25.00390625 10.328125 -25.00390625 10.328125 -24.08203125 8.09765625 C-21.8225975 6.6692446 -19.73643365 5.52718125 -17.33203125 4.41015625 C-16.71070313 4.10271484 -16.089375 3.79527344 -15.44921875 3.47851562 C-10.22684665 0.96097971 -5.76261528 -0.03535347 0 0 Z " fill="#8CB4CF" transform="translate(268.08203125,141.90234375)"/>
<path d="M0 0 C1.98 0.99 1.98 0.99 4 2 C4 2.99 4 3.98 4 5 C4.66 5 5.32 5 6 5 C7.87497643 11.34664642 8.30596675 17.08808683 8.25 23.6875 C8.25773437 24.61111328 8.26546875 25.53472656 8.2734375 26.48632812 C8.26021425 31.07809998 8.20495833 34.84382855 6 39 C5.34 39 4.68 39 4 39 C4.165 38.01 4.33 37.02 4.5 36 C5.7338893 25.82041324 6.14699443 15.52797257 2 6 C1.33333333 4 0.66666667 2 0 0 Z " fill="#90B1CC" transform="translate(305,174)"/>
<path d="M0 0 C3.37533325 0.41162601 5.97957282 0.99020329 9.0625 2.46875 C13.70595579 4.51290338 18.42652516 4.79427015 23.4375 5.1875 C24.35982422 5.26935547 25.28214844 5.35121094 26.23242188 5.43554688 C28.48759616 5.63418917 30.74311342 5.82206853 33 6 C30.19471613 8.80528387 28.14828156 8.28944686 24.31445312 8.32226562 C23.44755859 8.31904297 22.58066406 8.31582031 21.6875 8.3125 C20.83220703 8.32861328 19.97691406 8.34472656 19.09570312 8.36132812 C14.16481183 8.36514756 11.07862957 8.04725198 7 5 C4.80869466 4.30420546 4.80869466 4.30420546 3 4 C3 3.34 3 2.68 3 2 C2.01 2 1.02 2 0 2 C0 1.34 0 0.68 0 0 Z " fill="#81A8CA" transform="translate(251,232)"/>
<path d="M0 0 C0.99 0.33 1.98 0.66 3 1 C2.01 2.485 2.01 2.485 1 4 C0.34 4 -0.32 4 -1 4 C-1 4.66 -1 5.32 -1 6 C-7.95786471 12.47673577 -15.56090747 16.32577911 -25 17 C-22.51850135 13.89812669 -20.61466248 12.7361589 -16.8125 11.9375 C-15.554375 11.628125 -14.29625 11.31875 -13 11 C-12.67 10.01 -12.34 9.02 -12 8 C-10.29353827 7.27803542 -8.58431453 6.56111715 -6.85546875 5.89453125 C-3.9880533 4.51213517 -2.09417677 2.34801638 0 0 Z " fill="#89AECB" transform="translate(311,234)"/>
<path d="M0 0 C2 1 2 1 2.8125 3.25 C4.28266954 6.65460315 6.32594492 8.45328088 9 11 C13 15.64864865 13 15.64864865 13 18 C14.32 18 15.64 18 17 18 C17 18.99 17 19.98 17 21 C18.32 21.66 19.64 22.32 21 23 C20.01 23.33 19.02 23.66 18 24 C0.81384442 9.06153077 0.81384442 9.06153077 -1 1 C-0.67 0.67 -0.34 0.34 0 0 Z " fill="#84ACCD" transform="translate(226,221)"/>
<path d="M0 0 C4.95 0 9.9 0 15 0 C14.67 8.25 14.34 16.5 14 25 C13.67 25 13.34 25 13 25 C13 17.74 13 10.48 13 3 C9.37 3 5.74 3 2 3 C2 4.65 2 6.3 2 8 C1.67 8 1.34 8 1 8 C0.67 5.36 0.34 2.72 0 0 Z " fill="#7DACD0" transform="translate(186,143)"/>
<path d="M0 0 C1.2065625 0.0309375 1.2065625 0.0309375 2.4375 0.0625 C1.4475 0.3925 0.4575 0.7225 -0.5625 1.0625 C-0.5625 16.5725 -0.5625 32.0825 -0.5625 48.0625 C-0.8925 48.0625 -1.2225 48.0625 -1.5625 48.0625 C-1.58755615 46.78084961 -1.6126123 45.49919922 -1.63842773 44.17871094 C-1.73261595 39.4225875 -1.8328089 34.66660621 -1.93481445 29.91064453 C-1.97812009 27.85241013 -2.01979829 25.79414082 -2.05981445 23.73583984 C-2.11762275 20.77691121 -2.18128696 17.8181576 -2.24609375 14.859375 C-2.26280624 13.93944763 -2.27951874 13.01952026 -2.29673767 12.07171631 C-2.31668289 11.2111261 -2.33662811 10.35053589 -2.35717773 9.46386719 C-2.37272202 8.70885925 -2.3882663 7.95385132 -2.40428162 7.17596436 C-2.5020516 5.02439745 -2.5020516 5.02439745 -3.13783264 2.84991455 C-3.27797287 2.26006775 -3.4181131 1.67022095 -3.5625 1.0625 C-2.5625 0.0625 -2.5625 0.0625 0 0 Z " fill="#73A7D1" transform="translate(412.5625,143.9375)"/>
<path d="M0 0 C0.33 0 0.66 0 1 0 C1 10.23 1 20.46 1 31 C-3.64965188 24.02552218 -3.00778707 12.52092045 -1.55078125 4.5390625 C-1 2.625 -1 2.625 0 0 Z " fill="#7CA4C5" transform="translate(236,181)"/>
<path d="M0 0 C0.33 0.66 0.66 1.32 1 2 C0.01 3.485 0.01 3.485 -1 5 C-1 6.32 -1 7.64 -1 9 C-3.50484597 11.41847197 -4.46013806 12 -8 12 C-8.33 12.99 -8.66 13.98 -9 15 C-9.66 15 -10.32 15 -11 15 C-9.2645544 8.82952674 -4.42122925 4.42122925 0 0 Z " fill="#8BB0CE" transform="translate(238,155)"/>
<path d="M0 0 C4.95 0 9.9 0 15 0 C14.67 0.66 14.34 1.32 14 2 C13.91691362 3.37548156 13.89263984 4.75485796 13.90234375 6.1328125 C13.90556641 6.93847656 13.90878906 7.74414062 13.91210938 8.57421875 C13.92048828 9.41597656 13.92886719 10.25773438 13.9375 11.125 C13.94201172 11.97449219 13.94652344 12.82398438 13.95117188 13.69921875 C13.96297126 15.79950909 13.98090694 17.8997633 14 20 C13.67 20 13.34 20 13 20 C13 14.39 13 8.78 13 3 C10.339375 3.0928125 10.339375 3.0928125 7.625 3.1875 C4.6015625 3.29296875 4.6015625 3.29296875 2 3 C1.34 2.01 0.68 1.02 0 0 Z " fill="#8EB8DA" transform="translate(410,143)"/>
<path d="M0 0 C0.99 0.33 1.98 0.66 3 1 C2.01 3.31 1.02 5.62 0 8 C-0.99 8 -1.98 8 -3 8 C-3.04125 8.5775 -3.0825 9.155 -3.125 9.75 C-4.44065958 13.13312465 -6.96552364 14.19222685 -10 16 C-8.6619772 12.20109104 -6.97380503 9.43125504 -4.4375 6.3125 C-1.97527569 3.31223679 -1.97527569 3.31223679 0 0 Z " fill="#86ABC9" transform="translate(306,217)"/>
<path d="M0 0 C3.07469025 0.43924146 5.88031785 0.95744635 8.8125 2 C12.84709134 3.26575415 16.80065684 3.6453888 21 4 C16.47954041 6.63693476 12.98325145 6.02428986 8 5 C5.24806511 4.13575599 2.66626369 3.114983 0 2 C0 1.34 0 0.68 0 0 Z " fill="#88ADCA" transform="translate(249,246)"/>
<path d="M0 0 C2 1 2 1 2.875 3.375 C3.78190425 6.12396883 3.78190425 6.12396883 6.125 7.5 C6.74375 7.995 7.3625 8.49 8 9 C8.25 11.6875 8.25 11.6875 8 14 C4.41897159 10.61791761 1.43226526 7.30323854 -1 3 C-0.67 2.01 -0.34 1.02 0 0 Z " fill="#8CB5CF" transform="translate(226,221)"/>
<path d="M0 0 C0.33 0 0.66 0 1 0 C1 1.98 1 3.96 1 6 C6.94 6.99 6.94 6.99 13 8 C13 8.33 13 8.66 13 9 C8.38 9 3.76 9 -1 9 C-0.67 8.34 -0.34 7.68 0 7 C0.04022391 4.6670134 0.04320247 2.33293334 0 0 Z " fill="#80AECB" transform="translate(346,242)"/>
<path d="M0 0 C1.25425781 0.10183594 2.50851562 0.20367187 3.80078125 0.30859375 C5.22970703 0.43427734 5.22970703 0.43427734 6.6875 0.5625 C6.6875 0.8925 6.6875 1.2225 6.6875 1.5625 C-2.7175 2.0575 -2.7175 2.0575 -12.3125 2.5625 C-12.3125 1.9025 -12.3125 1.2425 -12.3125 0.5625 C-8.06698144 -0.53337955 -4.3532161 -0.36615836 0 0 Z " fill="#B0CAE1" transform="translate(272.3125,156.4375)"/>
<path d="M0 0 C2.24197388 1.77489599 2.94326323 2.62175489 3.375 5.5 C2.94326323 8.37824511 2.24197388 9.22510401 0 11 C-0.79953138 7.71303767 -1.09658936 6.28976808 0 3 C0 2.01 0 1.02 0 0 Z " fill="#6BA4C7" transform="translate(322,207)"/>
<path d="M0 0 C1.65 0 3.3 0 5 0 C4.67 0.99 4.34 1.98 4 3 C4.66 3.33 5.32 3.66 6 4 C3.125 4.625 3.125 4.625 0 5 C-0.66 4.34 -1.32 3.68 -2 3 C-1.34 3 -0.68 3 0 3 C0 2.01 0 1.02 0 0 Z " fill="#85B6DE" transform="translate(247,242)"/>
<path d="M0 0 C0.66 0.33 1.32 0.66 2 1 C0.515 6.445 0.515 6.445 -1 12 C-1.33 12 -1.66 12 -2 12 C-2.17835515 7.45194365 -1.99785435 4.1205746 0 0 Z " fill="#99B4D1" transform="translate(239,175)"/>
<path d="M0 0 C0.66 0 1.32 0 2 0 C1.1875 2.9375 1.1875 2.9375 0 6 C-0.99 6.33 -1.98 6.66 -3 7 C-2.67 5.35 -2.34 3.7 -2 2 C-1.34 2 -0.68 2 0 2 C0 1.34 0 0.68 0 0 Z " fill="#7EA6C7" transform="translate(243,169)"/>
<path d="M0 0 C1.9451 2.91765 2.45276317 4.62537285 3 8 C2.01 7.67 1.02 7.34 0 7 C-0.38133299 5.0085944 -0.71325582 3.00720923 -1 1 C-0.67 0.67 -0.34 0.34 0 0 Z " fill="#8AA9C9" transform="translate(222,210)"/>
<path d="M0 0 C1.65 0 3.3 0 5 0 C4.01 0.33 3.02 0.66 2 1 C2 2.98 2 4.96 2 7 C0.4375 5.1875 0.4375 5.1875 -1 3 C-0.67 2.01 -0.34 1.02 0 0 Z " fill="#88ACCD" transform="translate(410,144)"/>
</svg>
